# xmcd
#
# Track frame offsets: 
#        150
#        12158
#        24216
#        36810
#        46941
#        60510
#        73023
#        86681
#        100295
#        113343
#        125246
#        136961
#        148860
#        161797
#        175563
#        185430
#        195618
#        210069
#
# Disc length: 2990 seconds
#
# Revision: 0
# Processed by: cddbd v1.5.2PL0 Copyright (c) Steve Scherf et al.
# Submitted via: ExactAudioCopy v0.95b4
#
DISCID=ed0bac12
DTITLE=Various Artist - Rare Blues
DYEAR=2007
DGENRE=Blues
TTITLE0=Dust My Broom (Alt) - Robert Lockwood Jr.
TTITLE1=Hard Pill To Swallow - John Brim
TTITLE2=Why Should I Worry - Moody Jones
TTITLE3=You Don't Treat Me Right - Guitar Shorty
TTITLE4=Keep Drinkin' - Little Brother Montgomery
TTITLE5=Little By Little - Ricky Allen
TTITLE6=Leaving Your Town - Sunnyland Slim
TTITLE7=Blues Is Killin' Me - Leroy Foster
TTITLE8=Heavy Heart Beat - Jesse Fortune
TTITLE9=I Wanna Be Free - A.C. Reed
TTITLE10=Knockin' At Your Door - Elmore James
TTITLE11=Will My Man Be Home Tonight - Lillian Offitt
TTITLE12=I Want To Know - J.B. Lenoir
TTITLE13=Call Me If You Need Me - Shakey Jake
TTITLE14=Blue Baby - Little Walter
TTITLE15=Combination Boogie - J.B. Hutto
TTITLE16=I Love To Boogie - John Lee Hooker
TTITLE17=Want You To Rock Me - Jackie Brenston
EXTD=
EXTT0=
EXTT1=
EXTT2=
EXTT3=
EXTT4=
EXTT5=
EXTT6=
EXTT7=
EXTT8=
EXTT9=
EXTT10=
EXTT11=
EXTT12=
EXTT13=
EXTT14=
EXTT15=
EXTT16=
EXTT17=
PLAYORDER=
